<?xml version="1.0" encoding="UTF-8" standalone="no"?>
<svg
   xmlns:dc="http://purl.org/dc/elements/1.1/"
   xmlns:cc="http://creativecommons.org/ns#"
   xmlns:rdf="http://www.w3.org/1999/02/22-rdf-syntax-ns#"
   xmlns:svg="http://www.w3.org/2000/svg"
   xmlns="http://www.w3.org/2000/svg"
   xmlns:sodipodi="http://sodipodi.sourceforge.net/DTD/sodipodi-0.dtd"
   xmlns:inkscape="http://www.inkscape.org/namespaces/inkscape"
   version="1.1"
   id="svg2"
   xml:space="preserve"
   width="566.93335"
   height="566.93335"
   viewBox="0 0 566.93335 566.93335"
   sodipodi:docname="newest-toolbox.eps"><metadata
     id="metadata8"><rdf:RDF><cc:Work
         rdf:about=""><dc:format>image/svg+xml</dc:format><dc:type
           rdf:resource="http://purl.org/dc/dcmitype/StillImage" /></cc:Work></rdf:RDF></metadata><defs
     id="defs6" /><sodipodi:namedview
     pagecolor="#ffffff"
     bordercolor="#666666"
     borderopacity="1"
     objecttolerance="10"
     gridtolerance="10"
     guidetolerance="10"
     inkscape:pageopacity="0"
     inkscape:pageshadow="2"
     inkscape:window-width="640"
     inkscape:window-height="480"
     id="namedview4" /><g
     id="g10"
     inkscape:groupmode="layer"
     inkscape:label="ink_ext_XXXXXX"
     transform="matrix(1.3333333,0,0,-1.3333333,0,566.93333)"><g
       id="g12"
       transform="scale(0.1)"><path
         d="m 1626.2,2873.21 v 273.52 h 999.6 v -273.52 h 134.27 v 318.27 c 0,49.45 -40.08,89.52 -89.51,89.52 H 1581.45 c -49.44,0 -89.52,-40.07 -89.52,-89.52 v -318.27 h 134.27"
         style="fill:#231f20;fill-opacity:1;fill-rule:nonzero;stroke:none"
         id="path14" /><path
         d="m 668.164,989.641 c -47.832,0 -86.746,38.909 -86.746,86.739 V 2595.7 c 0,47.83 38.914,86.74 86.746,86.74 H 3583.84 c 47.82,0 86.73,-38.91 86.73,-86.74 V 1076.38 c 0,-47.83 -38.91,-86.739 -86.73,-86.739 H 668.164"
         style="fill:#cdcccc;fill-opacity:1;fill-rule:nonzero;stroke:none"
         id="path16" /><path
         d="M 3583.84,2701.09 H 668.164 c -58.203,0 -105.398,-47.19 -105.398,-105.39 V 1076.38 c 0,-58.2 47.195,-105.392 105.398,-105.392 H 3583.84 c 58.2,0 105.38,47.192 105.38,105.392 V 2595.7 c 0,58.2 -47.18,105.39 -105.38,105.39 m 0,-37.3 c 37.54,0 68.08,-30.54 68.08,-68.09 V 1076.38 c 0,-37.54 -30.54,-68.09 -68.08,-68.09 H 668.164 c -37.551,0 -68.105,30.55 -68.105,68.09 V 2595.7 c 0,37.55 30.554,68.09 68.105,68.09 H 3583.84"
         style="fill:#231f20;fill-opacity:1;fill-rule:nonzero;stroke:none"
         id="path18" /><path
         d="m 3583.84,1008.29 h -60.64 c 10.33,162.45 -9.09,327.12 -73.95,477.23 -35.62,82.4 -86.18,150.36 -147.11,206.52 v 286.01 h 349.78 v -901.67 c 0,-37.54 -30.54,-68.09 -68.08,-68.09 m -716.84,896 c -102.37,25.03 -206.95,40.06 -305.41,49.92 -140.92,14.11 -282.73,16.45 -424.29,16.45 -11.83,0 -23.66,-0.02 -35.48,-0.05 -9.17,-0.02 -18.32,-0.03 -27.48,-0.03 -185.58,0 -371.01,4.12 -556.57,7.47 H 2867 v -73.76 m -2266.941,27.35 v 46.41 H 1017 v -5.45 c -72.707,-4.61 -145.184,-11.63 -217.137,-22.03 12.985,1.88 17.403,2.52 17.332,2.52 -0.132,0 -16.593,-2.33 -21.179,-2.87 -10.379,-1.21 -20.793,-2.22 -31.203,-3.27 -21.813,-2.18 -43.692,-3.96 -65.547,-5.83 -33.11,-2.84 -66.188,-5.8 -99.207,-9.48"
         style="fill:#aeacad;fill-opacity:1;fill-rule:nonzero;stroke:none"
         id="path20" /><path
         d="m 3583.84,970.988 h -63.53 c 1.14,12.422 2.1,24.864 2.89,37.302 h 60.64 c 37.54,0 68.08,30.55 68.08,68.09 v 901.67 h 37.3 v -901.67 c 0,-58.2 -47.18,-105.392 -105.38,-105.392 M 562.766,1927.14 v 159.2 -108.29 h 37.293 v -46.41 c -12.442,-1.39 -24.871,-2.88 -37.293,-4.5"
         style="fill:#231f20;fill-opacity:1;fill-rule:nonzero;stroke:none"
         id="path22" /><path
         d="m 581.418,1996.7 v 539.32 c 0,47.83 38.914,86.75 86.746,86.75 H 3583.84 c 47.82,0 86.73,-38.92 86.73,-86.75 V 1996.7 H 581.418"
         style="fill:#828081;fill-opacity:1;fill-rule:nonzero;stroke:none"
         id="path24" /><path
         d="M 3583.84,2641.41 H 668.164 c -58.203,0 -105.398,-47.18 -105.398,-105.39 V 1978.05 H 3689.22 v 557.97 c 0,58.21 -47.18,105.39 -105.38,105.39 m 0,-37.3 c 37.54,0 68.08,-30.54 68.08,-68.09 V 2015.35 H 600.059 v 520.67 c 0,37.55 30.554,68.09 68.105,68.09 H 3583.84"
         style="fill:#231f20;fill-opacity:1;fill-rule:nonzero;stroke:none"
         id="path26" /><path
         d="m 1452.14,1672.21 h -368 v 67.13 h 179.53 v 0 h 121.34 v 238.71 h 67.13 v -305.84"
         style="fill:#959393;fill-opacity:1;fill-rule:nonzero;stroke:none"
         id="path28" /><path
         d="m 1385.01,2015.35 h 67.1289 v 70.9883 H 1385.01 Z"
         style="fill:#636061;fill-opacity:1;fill-rule:nonzero;stroke:none"
         id="path30" /><path
         d="m 1385.01,1978.05 h 67.1289 v 37.3008 H 1385.01 Z"
         style="fill:#231f20;fill-opacity:1;fill-rule:nonzero;stroke:none"
         id="path32" /><path
         d="m 3302.14,1672.21 h -368 v 67.13 h 152.18 v 0 H 3235 v 7.13 c 23.5,-16.79 45.95,-34.89 67.14,-54.43 v -19.83"
         style="fill:#959393;fill-opacity:1;fill-rule:nonzero;stroke:none"
         id="path34" /><path
         d="m 3302.14,1692.04 c -21.19,19.54 -43.64,37.64 -67.14,54.43 v 231.58 h 67.14 v -286.01"
         style="fill:#807e7f;fill-opacity:1;fill-rule:nonzero;stroke:none"
         id="path36" /><path
         d="m 3235,2015.35 h 67.1406 v 70.9883 H 3235 Z"
         style="fill:#636061;fill-opacity:1;fill-rule:nonzero;stroke:none"
         id="path38" /><path
         d="m 3235,1978.05 h 67.1406 v 37.3008 H 3235 Z"
         style="fill:#231f20;fill-opacity:1;fill-rule:nonzero;stroke:none"
         id="path40" /><path
         d="m 466.172,2104.98 c -47.824,0 -86.727,38.92 -86.727,86.75 v 605.96 c 0,47.83 38.903,86.74 86.727,86.74 H 3785.83 c 47.82,0 86.73,-38.91 86.73,-86.74 v -605.96 c 0,-47.83 -38.91,-86.75 -86.73,-86.75 H 466.172"
         style="fill:#d7d7d7;fill-opacity:1;fill-rule:nonzero;stroke:none"
         id="path42" /><path
         d="M 3785.83,2903.07 H 466.172 c -58.203,0 -105.379,-47.18 -105.379,-105.38 v -605.96 c 0,-58.22 47.176,-105.39 105.379,-105.39 H 3785.83 c 58.21,0 105.38,47.17 105.38,105.39 v 605.96 c 0,58.2 -47.17,105.38 -105.38,105.38 m 0,-37.3 c 37.54,0 68.09,-30.54 68.09,-68.08 v -605.96 c 0,-37.55 -30.55,-68.09 -68.09,-68.09 H 466.172 c -37.539,0 -68.086,30.54 -68.086,68.09 v 605.96 c 0,37.54 30.547,68.08 68.086,68.08 H 3785.83"
         style="fill:#231f20;fill-opacity:1;fill-rule:nonzero;stroke:none"
         id="path44" /><path
         d="M 3785.83,2123.64 H 3235 v 200.8 c 206.88,9.49 413.35,25.64 618.92,51.59 v -184.3 c 0,-37.55 -30.55,-68.09 -68.09,-68.09 m -918.83,0 H 1385.01 v 212.47 H 1017 V 2123.64 H 466.172 c -37.539,0 -68.086,30.54 -68.086,68.09 v 449.57 c 295.336,-120.83 603.324,-208.86 919.634,-253.89 446.5,-63.55 899.49,-74.64 1349.91,-74.64 7.03,0 14.09,0.01 21.12,0.01 59.42,0.05 118.84,0.42 178.25,1.18 v -190.32"
         style="fill:#b6b4b5;fill-opacity:1;fill-rule:nonzero;stroke:none"
         id="path46" /><path
         d="M 3785.83,2086.34 H 3235 v 37.3 h 550.83 c 37.54,0 68.09,30.54 68.09,68.09 v 184.3 c 12.43,1.57 24.86,3.18 37.29,4.82 v -189.12 c 0,-58.22 -47.17,-105.39 -105.38,-105.39 m -918.83,0 h -1414.86 -67.13 v 37.3 H 2867 v -37.3 m -1850,0 H 600.059 562.766 466.172 c -58.203,0 -105.379,47.17 -105.379,105.39 v 465.04 c 12.406,-5.22 24.836,-10.37 37.293,-15.47 v -449.57 c 0,-37.55 30.547,-68.09 68.086,-68.09 H 1017 v -37.3"
         style="fill:#231f20;fill-opacity:1;fill-rule:nonzero;stroke:none"
         id="path48" /><path
         d="m 1035.65,1757.99 h 330.711 v 559.473 H 1035.65 Z"
         style="fill:#8f8d8d;fill-opacity:1;fill-rule:nonzero;stroke:none"
         id="path50" /><path
         d="M 1385.01,2336.11 H 1017 v -596.77 h 368.01 v 596.77 m -37.29,-37.3 V 1776.64 H 1054.3 v 522.17 h 293.42"
         style="fill:#231f20;fill-opacity:1;fill-rule:nonzero;stroke:none"
         id="path52" /><path
         d="m 2885.65,1757.99 h 330.703 v 559.473 H 2885.65 Z"
         style="fill:#8f8d8d;fill-opacity:1;fill-rule:nonzero;stroke:none"
         id="path54" /><path
         d="m 3235,2336.11 h -368 v -596.77 h 368 v 596.77 m -37.29,-37.3 V 1776.64 H 2904.3 v 522.17 h 293.41"
         style="fill:#231f20;fill-opacity:1;fill-rule:nonzero;stroke:none"
         id="path56" /><path
         d="M 1244.74,1776.64 H 1054.3 v 522.17 h 137.83 c -23.15,-106.06 -23.08,-215.79 -7.88,-324.08 8.87,-63.09 29.51,-132.38 60.49,-198.09"
         style="fill:#7b7979;fill-opacity:1;fill-rule:nonzero;stroke:none"
         id="path58" /><path
         d="M 1263.67,1739.34 H 1017 v 596.77 h 184.28 c -3.38,-12.38 -6.43,-24.81 -9.15,-37.3 H 1054.3 v -522.17 h 190.44 c 5.93,-12.58 12.25,-25.04 18.93,-37.3"
         style="fill:#231f20;fill-opacity:1;fill-rule:nonzero;stroke:none"
         id="path60" /><path
         d="M 3069.22,1776.64 H 2904.3 v 522.17 h 116.1 c -23.79,-82.04 -32.81,-168.23 -24.24,-253.8 9.25,-92.27 35.76,-182.85 73.06,-268.37"
         style="fill:#7b7979;fill-opacity:1;fill-rule:nonzero;stroke:none"
         id="path62" /><path
         d="M 3086.32,1739.34 H 2867 v 596.77 h 165.32 c -4.31,-12.33 -8.29,-24.76 -11.92,-37.3 h -116.1 v -522.17 h 164.92 c 5.47,-12.54 11.18,-24.98 17.1,-37.3"
         style="fill:#231f20;fill-opacity:1;fill-rule:nonzero;stroke:none"
         id="path64" /><path
         d="m 499.805,2205.57 c 0,103.19 0,206.39 0,309.57 0,43.3 -67.149,43.3 -67.149,0 0,-103.18 0,-206.38 0,-309.57 0,-43.29 67.149,-43.29 67.149,0"
         style="fill:#231f20;fill-opacity:1;fill-rule:nonzero;stroke:none"
         id="path66" /><path
         d="m 503.535,2627.04 c 0,22.38 0,44.76 0,67.14 0,43.29 -67.148,43.29 -67.148,0 0,-22.38 0,-44.76 0,-67.14 0,-43.3 67.148,-43.3 67.148,0"
         style="fill:#231f20;fill-opacity:1;fill-rule:nonzero;stroke:none"
         id="path68" /><path
         d="m 3737.29,2809.8 c 0,-130.54 0,-261.09 0,-391.63 0,-43.29 67.14,-43.29 67.14,0 0,130.54 0,261.09 0,391.63 0,43.3 -67.14,43.3 -67.14,0"
         style="fill:#231f20;fill-opacity:1;fill-rule:nonzero;stroke:none"
         id="path70" /><path
         d="m 3748.48,2328.66 c 0,-18.65 0,-37.3 0,-55.96 0,-43.29 67.13,-43.29 67.13,0 0,18.66 0,37.31 0,55.96 0,43.3 -67.13,43.3 -67.13,0"
         style="fill:#231f20;fill-opacity:1;fill-rule:nonzero;stroke:none"
         id="path72" /><path
         d="m 2752.62,1075.43 c 190.22,0 380.44,0 570.66,0 43.29,0 43.29,67.14 0,67.14 -190.22,0 -380.44,0 -570.66,0 -43.29,0 -43.29,-67.14 0,-67.14"
         style="fill:#231f20;fill-opacity:1;fill-rule:nonzero;stroke:none"
         id="path74" /><path
         d="m 3412.79,1079.15 c 42.28,0 84.54,0 126.82,0 43.29,0 43.29,67.14 0,67.14 -42.28,0 -84.54,0 -126.82,0 -43.29,0 -43.29,-67.14 0,-67.14"
         style="fill:#231f20;fill-opacity:1;fill-rule:nonzero;stroke:none"
         id="path76" /><path
         d="m 637.148,1243.27 c 0.02,-55.07 1.399,-109.58 12.137,-163.77 6.711,-33.84 58.305,-19.47 51.621,14.23 -9.793,49.41 -10.215,99.35 -10.242,149.54 -0.012,34.52 -53.535,34.52 -53.516,0"
         style="fill:#ffffff;fill-opacity:1;fill-rule:nonzero;stroke:none"
         id="path78" /><path
         d="m 3573.17,2178.81 c 41.24,-0.26 81.9,-2.59 122.75,4.69 33.94,6.04 19.51,57.62 -14.24,51.61 -35.72,-6.36 -72.43,-3 -108.51,-2.77 -34.52,0.22 -34.5,-53.31 0,-53.53"
         style="fill:#ffffff;fill-opacity:1;fill-rule:nonzero;stroke:none"
         id="path80" /><path
         d="m 1144.76,1973.98 c -14.13,45.64 -17.59,96.3 -3.73,142.42 9.95,33.14 -41.71,47.2 -51.63,14.23 -16.45,-54.81 -13.08,-116.55 3.73,-170.88 10.18,-32.87 61.86,-18.84 51.63,14.23"
         style="fill:#ffffff;fill-opacity:1;fill-rule:nonzero;stroke:none"
         id="path82" /><path
         d="m 2994.76,2011.27 c -6.46,35 -5.78,70.77 3.73,105.13 9.22,33.32 -42.44,47.45 -51.62,14.23 -12.14,-43.89 -11.94,-89.03 -3.74,-133.59 6.25,-33.91 57.84,-19.5 51.63,14.23"
         style="fill:#ffffff;fill-opacity:1;fill-rule:nonzero;stroke:none"
         id="path84" /></g></g></svg>
